<svg xmlns="http://www.w3.org/2000/svg" viewBox="0 0 81 81" fill="none">
  <defs>
    <radialGradient id="atom_grad" cx="50%" cy="50%" r="50%" fx="25%" fy="25%">
      <stop offset="0%" stop-color="#ffffff" stop-opacity="0.8"/>
      <stop offset="100%" stop-color="#007aff"/>
    </radialGradient>
  </defs>

  <g transform="translate(-10, -10)">
      <g stroke="rgba(0, 122, 255, 0.3)" stroke-width="3" stroke-linecap="round">
        <line x1="50" y1="20" x2="76" y2="35" />
        <line x1="76" y1="35" x2="76" y2="65" />
        <line x1="76" y1="65" x2="50" y2="80" />
        <line x1="50" y1="80" x2="24" y2="65" />
        <line x1="24" y1="65" x2="24" y2="35" />
        <line x1="24" y1="35" x2="50" y2="20" />
        
        <line x1="50" y1="50" x2="50" y2="20" />
        <line x1="50" y1="50" x2="76" y2="35" />
        <line x1="50" y1="50" x2="76" y2="65" />
        <line x1="50" y1="50" x2="50" y2="80" />
        <line x1="50" y1="50" x2="24" y2="65" />
        <line x1="50" y1="50" x2="24" y2="35" />
      </g>

      <g fill="url(#atom_grad)">
        <circle cx="50" cy="50" r="8" />  
        <circle cx="50" cy="20" r="7" />
        <circle cx="76" cy="35" r="7" />
        <circle cx="76" cy="65" r="7" />
        <circle cx="50" cy="80" r="7" />
        <circle cx="24" cy="65" r="7" />
        <circle cx="24" cy="35" r="7" />
      </g>
  </g>
</svg>
